<svg version="1.1" xmlns="http://www.w3.org/2000/svg" xmlns:xlink="http://www.w3.org/1999/xlink" x="0px" y="0px" viewBox="0 0 256 256" enable-background="new 0 0 256 256" xml:space="preserve">
<metadata> Svg Vector Icons : http://www.onlinewebfonts.com/icon </metadata>
<g><g><g><path fill="#000000" d="M122.5,25.5c-15,2.4-27,13-31.2,27.5c-0.9,3.1-1.1,4.7-1,10.5c0,9.8,1,12.7,8.4,26c9.1,16.4,17.9,35.8,24.2,53.7c1.7,5,3,6.6,5,6.6c2.5,0,3.2-1.2,6.6-10.3c7.7-20.8,14.6-35.9,24.1-52.5c5.7-9.9,7.6-17,7.2-25.8c-0.4-6.1-1.2-9.3-3.8-14.8c-4.7-9.7-13.5-17-24.1-19.9C133.9,25.4,126.3,24.9,122.5,25.5z M134.4,49c3,1.2,6.6,4.5,8.1,7.5c3.9,8,0.6,17.4-7.4,21.3c-2.3,1.1-3.2,1.3-6.8,1.3c-5,0-7.6-1.1-11-4.5c-3-3-4.4-6-4.6-10.3c-0.2-4.7,1-8.2,4.3-11.6C121.6,47.9,127.7,46.6,134.4,49z"/><path fill="#000000" d="M83.2,110.6C31.8,121.9,2.4,150,11.7,179c14.7,45.7,116.4,67.1,186.8,39.4c24.7-9.7,41.1-24.1,46.3-40.5c1.5-5.1,1.5-14.2,0-19.2c-6.2-20.1-29.4-36.8-63.9-46.1c-4.7-1.3-15.5-3.6-16.8-3.6c-0.6,0-1.5,1.6-3.2,5.3c-1.4,2.9-2.4,5.3-2.3,5.3c0.1,0.1,3,0.7,6.4,1.4c32.7,6.3,57.1,20.6,63.2,37.2c1.5,4.2,1.9,10.4,0.8,14.5c-4.9,18.7-30.7,34.2-67.3,40.6c-12.2,2.2-20.3,2.8-34.7,2.8c-26.8,0-49.6-4.2-69.4-12.8C28.5,190.6,17,170,29.1,152c3-4.4,9.4-10.6,14.7-14.1c11.6-7.7,30.5-14.5,48.1-17.4c2.7-0.4,5.1-0.9,5.3-1.1c0.2-0.1-0.7-2.5-2-5.3C92.4,108.1,93.4,108.4,83.2,110.6z"/><path fill="#000000" d="M98.2,148.3c-17.6,4.5-26.3,11.7-24.1,19.7c0.8,2.8,5.3,7.2,9.7,9.5c23.2,12,70.7,11.3,91-1.4c5.3-3.3,7.7-6.6,7.8-10.5c0.1-7.2-8.8-13.5-24.5-17.5c-3-0.7-5.7-1.3-6-1.2c-0.4,0.1-1.4,2.1-2.2,4.4c-0.8,2.3-2.2,5.4-3.2,6.8c-4.9,7.6-13.5,11.7-21.6,10.4c-8.9-1.5-15.7-8.1-19.1-18.5c-0.7-2.2-1.2-3.1-1.8-3.1C103.8,147,101.1,147.6,98.2,148.3z"/></g></g></g>
</svg>